<svg version="1.1" id="Layer_1" width="148" height="40" xmlns="http://www.w3.org/2000/svg"
	 viewBox="0 0 2522.5 605.5" style="enable-background:new 0 0 444.8 120;" xml:space="preserve">
<style type="text/css">
	.st0{fill:#2B5E7C;stroke:#2B5E7C;stroke-miterlimit:10;}
	.st1{fill:#2B5E7C;}
</style>
		<path class="st0" d="M84.3,329.5c0,0-112.6,44-50.3,71.2s120.6,4.6,157.5-37.7c51.9,0,102.6-27.6,102.6-27.6s-52.3,93.4-10.5,119.8
	c0,0,8,5,28.1-8c20.1-13,31.8-0.4,34.8,3.4s15.1,8.4,28.5-7.1s26.4-20.5,44.8-16.8s21.8-28.4,16.3-33.9s-44.8-61.6-35.2-68.3
	c28.1,4.2,110.6,8.4,147.4-9.6c0,0,43.1,23,46.1,37.3c2.9,14.2-189.2,163.5-131.9,209.4c85,40.3,248.7-87.9,284.3-155.4
	c34.4-51.1,48.6-162.5,15.9-221.1C730,126.4,706.6,77.8,610.3,45.6s-227.8-8.8-286.8,22.6s-49.4,46.1-87.9,71.6
	s-123.5,25.5-133.6,141.5C72.2,298.1,84.3,329.5,84.3,329.5z"/>
		<g>
	<path class="st1" d="M1017.7,151.7H851.6V339h-41.5V131.2c0-2.9,0.5-5.6,1.6-8.1c1.1-2.6,2.5-4.8,4.4-6.7c1.9-1.9,4.1-3.4,6.6-4.5
		c2.6-1.1,5.3-1.6,8.3-1.6h186.7V151.7z M999.2,245.5H868.1v-41.8h131.1V245.5z"/>
			<path class="st1" d="M1122.3,339h-18.5c-6,0-12.3-1-19.1-3c-6.8-2-13.1-5.3-18.9-10c-5.8-4.6-10.7-10.6-14.5-18
		c-3.8-7.4-5.7-16.5-5.7-27.2V93.7h41.5v187.1c0,5.1,1.6,9.2,4.8,12.2c3.2,3,7.2,4.5,12,4.5h18.5V339z"/>
			<path class="st1" d="M1334.9,318.1c0,3-0.5,5.7-1.6,8.3c-1.1,2.6-2.5,4.8-4.4,6.6c-1.9,1.9-4,3.3-6.5,4.4c-2.5,1.1-5.2,1.6-8.1,1.6
		h-93.8c-5.1,0-10.6-0.6-16.3-1.8c-5.8-1.2-11.5-3.1-17.1-5.7c-5.6-2.6-11.1-5.9-16.3-9.9c-5.3-4-9.9-8.8-13.8-14.5
		c-3.9-5.7-7.1-12.3-9.5-19.7c-2.4-7.4-3.6-15.8-3.6-25.2v-95.7h41.5v95.7c0,5.4,0.9,10.3,2.8,14.6c1.9,4.3,4.4,8,7.6,11.1
		c3.2,3.1,6.9,5.4,11.2,7.1c4.3,1.6,9,2.5,14,2.5h72.6V166.6h41.5V318.1z"/>
			<path class="st1" d="M1415.9,131.2h-41.5V93.7h41.5V131.2z M1415.9,339h-41.5V166.6h41.5V339z"/>
			<path class="st1" d="M1644.8,280.8c0,7.1-0.9,13.5-2.7,19.2c-1.8,5.7-4.2,10.7-7.2,15c-3,4.3-6.4,8-10.4,11
		c-3.9,3-8.1,5.5-12.4,7.4c-4.3,1.9-8.7,3.3-13.1,4.2c-4.4,0.9-8.6,1.4-12.5,1.4h-74.8c-7.1,0-13.5-0.9-19.1-2.7
		c-5.6-1.8-10.6-4.2-14.9-7.3c-4.3-3-8-6.5-11-10.4c-3-3.9-5.5-8.1-7.4-12.4c-1.9-4.3-3.3-8.7-4.2-13.1c-0.9-4.4-1.4-8.5-1.4-12.4
		v-56.1c0-10.6,1.9-19.6,5.8-27c3.9-7.4,8.7-13.4,14.5-18c5.8-4.6,12.1-7.9,18.9-10c6.8-2,13.1-3,18.8-3h74.8V208h-74.5
		c-5.5,0-9.7,1.4-12.6,4.2c-2.9,2.8-4.3,6.9-4.3,12.4v55.8c0,5.6,1.4,9.9,4.2,12.8c2.8,2.9,6.9,4.3,12.4,4.3h74.8
		c5.6,0,9.8-1.4,12.6-4.3c2.8-2.9,4.1-7,4.1-12.4V93.7h41.5V280.8z"/>
			<path class="st1" d="M1908.7,271.7c0,8.2-1,15.5-3.1,22.1c-2.1,6.5-4.8,12.3-8.2,17.3c-3.4,5-7.4,9.2-12,12.8
		c-4.6,3.5-9.3,6.4-14.2,8.6c-4.9,2.2-9.9,3.9-14.9,4.9c-5.1,1.1-9.8,1.6-14.3,1.6h-159.9v-41.5H1842c8,0,14.2-2.3,18.6-7
		c4.4-4.7,6.6-10.9,6.6-18.8c0-3.8-0.6-7.3-1.8-10.5c-1.2-3.2-2.8-6-5-8.3c-2.2-2.3-4.8-4.1-8-5.4c-3.1-1.3-6.6-1.9-10.4-1.9h-95.4
		c-6.7,0-13.9-1.2-21.7-3.6c-7.8-2.4-15-6.2-21.6-11.6c-6.6-5.3-12.2-12.3-16.6-20.9c-4.4-8.6-6.6-19.1-6.6-31.6s2.2-22.9,6.6-31.5
		c4.4-8.6,9.9-15.5,16.6-20.9c6.6-5.4,13.8-9.2,21.6-11.6c7.8-2.4,15-3.6,21.7-3.6h141.1v41.5h-141.1c-7.9,0-14,2.4-18.4,7.2
		c-4.4,4.8-6.6,11.1-6.6,19c0,8,2.2,14.3,6.6,18.9c4.4,4.6,10.5,6.9,18.4,6.9h95.4h0.3c4.5,0.1,9.2,0.7,14.2,1.8
		c5,1.1,10,2.8,14.9,5.2c4.9,2.3,9.6,5.3,14.1,8.9c4.5,3.6,8.4,7.8,11.9,12.8c3.5,5,6.2,10.7,8.2,17.2
		C1907.7,256.1,1908.7,263.5,1908.7,271.7z"/>
			<path class="st1" d="M2126,280.8c0,7.1-0.9,13.5-2.7,19.2c-1.8,5.7-4.2,10.7-7.2,15c-3,4.3-6.4,8-10.4,11c-3.9,3-8.1,5.5-12.4,7.4
		c-4.3,1.9-8.7,3.3-13.1,4.2c-4.4,0.9-8.6,1.4-12.5,1.4H1993c-5.7,0-12-1-18.8-3c-6.8-2-13.1-5.3-18.9-10
		c-5.8-4.6-10.6-10.6-14.5-18c-3.9-7.4-5.8-16.5-5.8-27.2v-56.1c0-10.6,1.9-19.6,5.8-27c3.9-7.4,8.7-13.4,14.5-18
		c5.8-4.6,12.1-7.9,18.9-10c6.8-2,13.1-3,18.8-3h74.8c10.6,0,19.7,1.9,27.1,5.7c7.4,3.8,13.4,8.6,18,14.4c4.6,5.8,7.9,12.1,10,18.9
		c2.1,6.8,3.1,13.1,3.1,19V280.8z M2084.6,224.9c0-5.7-1.4-10-4.3-12.8c-2.9-2.8-7-4.1-12.4-4.1h-74.5c-5.5,0-9.7,1.4-12.6,4.2
		c-2.9,2.8-4.3,6.9-4.3,12.4v56.1c0,5.4,1.4,9.6,4.3,12.4c2.9,2.9,7.1,4.3,12.6,4.3h74.5c5.6,0,9.8-1.4,12.6-4.3
		c2.8-2.9,4.1-7,4.1-12.4V224.9z"/>
			<path class="st1" d="M2313.9,133.3h-93.4c-5.6,0-9.9,1.4-12.8,4.2c-2.9,2.8-4.3,6.9-4.3,12.4V339h-41.5V149.8
		c0-7.1,0.9-13.5,2.7-19.1c1.8-5.6,4.2-10.6,7.3-14.9c3-4.3,6.5-8,10.4-11c3.9-3,8.1-5.5,12.4-7.4c4.3-1.9,8.6-3.3,13-4.2
		c4.4-0.9,8.5-1.4,12.4-1.4h93.8V133.3z M2313.9,208h-93.8v-41.5h93.8V208z"/>
			<path class="st1" d="M2497.8,208h-72.4V339h-41.9V208h-53.9v-41.5h53.9v-56.3h41.9v56.3h72.4V208z"/>
</g>
		<g>
	<path class="st1" d="M937.7,426.3h-50.8v104h-23v-104H813v-23h124.7V426.3z"/>
			<path class="st1" d="M1075.2,530.3h-83.1c-3.2,0-6.7-0.6-10.5-1.7c-3.8-1.1-7.3-3-10.5-5.5c-3.2-2.6-5.9-5.9-8.1-10
		c-2.2-4.1-3.2-9.1-3.2-15.1v-83.1c0-1.6,0.3-3.1,0.9-4.5c0.6-1.4,1.4-2.7,2.4-3.7c1-1.1,2.3-1.9,3.7-2.5c1.4-0.6,3-0.9,4.6-0.9
		h103.7v23h-92.3v71.7c0,3,0.8,5.3,2.4,6.9s3.9,2.4,7,2.4h82.9V530.3z M1064.8,478.4h-72.7v-23.2h72.7V478.4z"/>
			<path class="st1" d="M1216.2,530.3h-83.1c-2.1,0-4.4-0.3-6.9-0.8c-2.5-0.5-4.9-1.3-7.3-2.3c-2.4-1.1-4.7-2.4-6.9-4.1
		c-2.2-1.7-4.1-3.7-5.8-6.1c-1.7-2.4-3-5.2-4-8.3c-1-3.2-1.5-6.7-1.5-10.7v-62.4c0-2.1,0.3-4.4,0.8-6.9c0.5-2.5,1.3-4.9,2.3-7.3
		c1.1-2.4,2.5-4.7,4.2-6.9c1.7-2.2,3.8-4.1,6.2-5.8s5.2-3,8.3-4c3.1-1,6.7-1.5,10.6-1.5h83.1v23h-83.1c-3,0-5.3,0.8-6.9,2.4
		s-2.4,4-2.4,7.1v62.2c0,3,0.8,5.2,2.4,6.9c1.6,1.6,3.9,2.4,6.9,2.4h83.1V530.3z"/>
			<path class="st1" d="M1267,455.2h80.9v-51.9h23v127h-23v-51.9H1267v51.9h-23v-127h23V455.2z"/>
			<path class="st1" d="M1530.6,520.4c0,1.7-0.3,3.2-0.9,4.6c-0.6,1.4-1.4,2.6-2.5,3.7c-1,1-2.3,1.8-3.7,2.4c-1.4,0.6-2.9,0.9-4.5,0.9
		c-1.4,0-2.9-0.3-4.3-0.8c-1.4-0.5-2.7-1.4-3.9-2.6l-84.2-87.9v89.5h-23V413.1c0-2.4,0.7-4.5,2-6.4c1.3-1.9,3-3.4,5.1-4.3
		c2.2-0.9,4.4-1.1,6.7-0.7c2.3,0.4,4.3,1.5,5.9,3.2l84.2,87.8v-89.5h23V520.4z"/>
			<path class="st1" d="M1696.5,478.9c0,7.7-1.3,14.9-4,21.4c-2.7,6.5-6.3,12.1-11.1,16.8c-4.7,4.7-10.3,8.4-16.8,11
		c-6.5,2.6-13.5,3.9-21.1,3.9h-31.2c-7.6,0-14.7-1.3-21.2-3.9c-6.5-2.6-12.1-6.3-16.8-11c-4.7-4.7-8.4-10.3-11.1-16.8
		c-2.7-6.5-4-13.6-4-21.4v-24.3c0-7.7,1.3-14.8,4-21.3c2.7-6.5,6.4-12.1,11.1-16.8c4.7-4.7,10.3-8.4,16.8-11c6.5-2.7,13.6-4,21.2-4
		h31.2c7.6,0,14.7,1.3,21.1,4c6.5,2.7,12.1,6.3,16.8,11c4.7,4.7,8.4,10.3,11.1,16.8c2.7,6.5,4,13.6,4,21.3V478.9z M1673.5,454.6
		c0-4.5-0.7-8.7-2.2-12.4c-1.4-3.7-3.5-6.9-6.1-9.5c-2.6-2.6-5.8-4.7-9.5-6.1c-3.7-1.4-7.8-2.2-12.2-2.2h-31.2
		c-4.5,0-8.6,0.7-12.3,2.2c-3.7,1.4-6.9,3.5-9.5,6.1c-2.7,2.6-4.7,5.8-6.2,9.5c-1.4,3.7-2.2,7.8-2.2,12.4v24.3
		c0,4.5,0.7,8.7,2.2,12.4c1.4,3.7,3.5,6.9,6.2,9.5c2.7,2.6,5.8,4.7,9.5,6.1s7.8,2.2,12.3,2.2h31c4.5,0,8.6-0.7,12.3-2.2
		c3.7-1.4,6.9-3.5,9.5-6.1c2.7-2.6,4.7-5.8,6.2-9.5c1.4-3.7,2.2-7.8,2.2-12.4V454.6z"/>
			<path class="st1" d="M1841.8,530.3h-105.1c-1.7,0-3.2-0.3-4.6-0.9c-1.4-0.6-2.6-1.4-3.7-2.4c-1-1-1.8-2.3-2.4-3.7
		c-0.6-1.4-0.9-3-0.9-4.6V403.2h23v104h93.6V530.3z"/>
			<path class="st1" d="M1995.9,478.9c0,7.7-1.3,14.9-4,21.4c-2.7,6.5-6.3,12.1-11.1,16.8c-4.7,4.7-10.3,8.4-16.8,11
		c-6.5,2.6-13.5,3.9-21.1,3.9h-31.2c-7.6,0-14.7-1.3-21.2-3.9c-6.5-2.6-12.1-6.3-16.8-11c-4.7-4.7-8.4-10.3-11.1-16.8
		c-2.7-6.5-4-13.6-4-21.4v-24.3c0-7.7,1.3-14.8,4-21.3c2.7-6.5,6.4-12.1,11.1-16.8c4.7-4.7,10.3-8.4,16.8-11c6.5-2.7,13.6-4,21.2-4
		h31.2c7.6,0,14.7,1.3,21.1,4c6.5,2.7,12.1,6.3,16.8,11c4.7,4.7,8.4,10.3,11.1,16.8c2.7,6.5,4,13.6,4,21.3V478.9z M1972.9,454.6
		c0-4.5-0.7-8.7-2.2-12.4c-1.4-3.7-3.5-6.9-6.1-9.5c-2.6-2.6-5.8-4.7-9.5-6.1c-3.7-1.4-7.8-2.2-12.2-2.2h-31.2
		c-4.5,0-8.6,0.7-12.3,2.2c-3.7,1.4-6.9,3.5-9.5,6.1c-2.7,2.6-4.7,5.8-6.2,9.5c-1.4,3.7-2.2,7.8-2.2,12.4v24.3
		c0,4.5,0.7,8.7,2.2,12.4c1.4,3.7,3.5,6.9,6.2,9.5c2.7,2.6,5.8,4.7,9.5,6.1s7.8,2.2,12.3,2.2h31c4.5,0,8.6-0.7,12.3-2.2
		c3.7-1.4,6.9-3.5,9.5-6.1c2.7-2.6,4.7-5.8,6.2-9.5c1.4-3.7,2.2-7.8,2.2-12.4V454.6z"/>
			<path class="st1" d="M2149.8,518.7c0,1.7-0.3,3.2-0.9,4.6c-0.6,1.4-1.4,2.6-2.4,3.7c-1,1-2.3,1.8-3.7,2.4c-1.4,0.6-3,0.9-4.6,0.9
		h-83.1c-2.1,0-4.4-0.3-6.9-0.8c-2.5-0.5-4.9-1.3-7.3-2.3c-2.4-1.1-4.7-2.4-6.9-4.1c-2.2-1.7-4.1-3.7-5.8-6.1c-1.7-2.4-3-5.2-4-8.3
		c-1-3.2-1.5-6.7-1.5-10.7v-62.4c0-2.1,0.3-4.4,0.8-6.9c0.5-2.5,1.3-4.9,2.3-7.3c1.1-2.4,2.5-4.7,4.2-6.9c1.7-2.2,3.8-4.1,6.2-5.8
		s5.2-3,8.3-4c3.1-1,6.7-1.5,10.6-1.5h93.6v23h-93.6c-3,0-5.3,0.8-6.9,2.4c-1.6,1.6-2.4,4-2.4,7.1v62.2c0,3,0.8,5.2,2.4,6.9
		c1.6,1.6,3.9,2.4,6.9,2.4h71.7v-28.9h-61.3v-23.2h72.7c1.7,0,3.2,0.3,4.6,0.9c1.4,0.6,2.6,1.5,3.7,2.5c1,1.1,1.8,2.3,2.4,3.7
		c0.6,1.4,0.9,2.9,0.9,4.5V518.7z"/>
			<path class="st1" d="M2202.8,530.3h-23v-127h23V530.3z"/>
			<path class="st1" d="M2350.4,530.3h-83.1c-3.2,0-6.7-0.6-10.5-1.7c-3.8-1.1-7.3-3-10.5-5.5c-3.2-2.6-5.9-5.9-8.1-10
		c-2.2-4.1-3.2-9.1-3.2-15.1v-83.1c0-1.6,0.3-3.1,0.9-4.5c0.6-1.4,1.4-2.7,2.4-3.7c1-1.1,2.3-1.9,3.7-2.5c1.4-0.6,3-0.9,4.6-0.9
		h103.7v23h-92.3v71.7c0,3,0.8,5.3,2.4,6.9s3.9,2.4,7,2.4h82.9V530.3z M2340,478.4h-72.7v-23.2h72.7V478.4z"/>
			<path class="st1" d="M2500.1,492.9c0,4.5-0.6,8.6-1.7,12.3c-1.2,3.6-2.7,6.8-4.6,9.6c-1.9,2.8-4.1,5.1-6.6,7.1
		c-2.5,1.9-5.2,3.5-7.9,4.8c-2.7,1.2-5.5,2.2-8.3,2.7c-2.8,0.6-5.4,0.9-7.9,0.9h-88.9v-23h88.9c4.4,0,7.9-1.3,10.3-3.9
		c2.4-2.6,3.7-6.1,3.7-10.5c0-2.1-0.3-4.1-1-5.8c-0.7-1.8-1.6-3.3-2.8-4.6c-1.2-1.3-2.7-2.3-4.4-3c-1.7-0.7-3.7-1.1-5.8-1.1h-53
		c-3.7,0-7.7-0.7-12-2c-4.3-1.3-8.3-3.5-12-6.4c-3.7-3-6.8-6.8-9.2-11.6c-2.5-4.8-3.7-10.6-3.7-17.5s1.2-12.7,3.7-17.5
		c2.5-4.8,5.5-8.6,9.2-11.6c3.7-3,7.7-5.1,12-6.5c4.3-1.3,8.3-2,12-2h78.4v23h-78.4c-4.4,0-7.8,1.3-10.2,4
		c-2.5,2.7-3.7,6.2-3.7,10.5c0,4.4,1.2,7.9,3.7,10.5c2.5,2.6,5.9,3.9,10.2,3.9h53h0.2c2.5,0.1,5.1,0.4,7.9,1
		c2.8,0.6,5.5,1.6,8.3,2.9c2.7,1.3,5.4,2.9,7.8,4.9c2.5,2,4.7,4.4,6.6,7.1c1.9,2.8,3.4,6,4.6,9.6
		C2499.5,484.3,2500.1,488.3,2500.1,492.9z"/>
</g>
</svg>
